<svg width="25" height="25" viewBox="0 0 25 25" fill="none" xmlns="http://www.w3.org/2000/svg">
<mask id="mask0_59_1272" style="mask-type:luminance" maskUnits="userSpaceOnUse" x="0" y="0" width="25" height="25">
<path d="M24.2969 24.2969V0L0 0V24.2969H24.2969Z" fill="white"/>
</mask>
<g mask="url(#mask0_59_1272)">
<path d="M12.1096 0C10.7815 -5.80547e-08 9.68775 1.09375 9.68775 2.42188V16.0938L6.01587 12.4219C5.00024 11.4063 3.43774 11.4063 2.50024 12.3438C1.56274 13.2813 1.64087 14.8437 2.57837 15.8594L10.3127 23.5938C11.3284 24.6094 12.8909 24.6875 13.8284 23.6719L13.9065 23.5938L13.9846 23.5156L21.6409 15.8594C22.6565 14.8437 22.6565 13.2813 21.719 12.3438C20.7815 11.4063 19.219 11.4063 18.2034 12.4219L14.4534 16.1719V2.42188C14.5315 1.09375 13.4377 5.80539e-08 12.1096 0Z" fill="#2545DC"/>
</g>
</svg>
